<svg width="41" height="33" viewBox="0 0 41 33" fill="none" xmlns="http://www.w3.org/2000/svg">
<path d="M20.4699 14.8066L34.1306 1.25975C35.0748 0.32342 36.6016 0.32342 37.5357 1.25975L39.8058 3.51092C40.75 4.44725 40.75 5.96131 39.8058 6.88768L30.1328 16.5L39.8158 26.1023C40.76 27.0387 40.76 28.5527 39.8158 29.4791L37.5457 31.7402C36.6016 32.6765 35.0748 32.6765 34.1406 31.7402L20.4799 18.1933C19.5257 17.257 19.5257 15.743 20.4699 14.8066V14.8066ZM1.18413 18.1933L14.8448 31.7402C15.789 32.6765 17.3158 32.6765 18.25 31.7402L20.5201 29.489C21.4643 28.5527 21.4643 27.0387 20.5201 26.1123L10.8471 16.5L20.5301 6.89764C21.4743 5.96131 21.4743 4.44725 20.5301 3.52088L18.26 1.25975C17.3158 0.32342 15.789 0.32342 14.8549 1.25975L1.19418 14.8066C0.239934 15.743 0.239934 17.257 1.18413 18.1933V18.1933Z" fill="#F2F2F2"/>
</svg>
