<svg width="112" height="37" viewBox="0 0 112 37" fill="none" xmlns="http://www.w3.org/2000/svg">
<path d="M7.85753 36.4142C6.42494 36.4142 5.10812 36.0816 3.90706 35.4163C2.706 34.7366 1.75094 33.8039 1.04188 32.618C0.347294 31.4177 0 30.0656 0 28.5616C0 27.0576 0.347294 25.7126 1.04188 24.5268C1.75094 23.3265 2.706 22.3937 3.90706 21.7285C5.10812 21.0632 6.42494 20.7306 7.85753 20.7306C9.30459 20.7306 10.6214 21.0632 11.808 21.7285C13.0091 22.3937 13.9569 23.3265 14.6515 24.5268C15.3461 25.7126 15.6934 27.0576 15.6934 28.5616C15.6934 30.0656 15.3461 31.4177 14.6515 32.618C13.9569 33.8039 13.0091 34.7366 11.808 35.4163C10.6069 36.0816 9.29012 36.4142 7.85753 36.4142ZM7.85753 32.4662C8.94282 32.4662 9.79659 32.1119 10.4188 31.4032C11.0555 30.6946 11.3739 29.7474 11.3739 28.5616C11.3739 27.3468 11.0555 26.3923 10.4188 25.6982C9.79659 24.9896 8.94282 24.6352 7.85753 24.6352C6.75776 24.6352 5.89676 24.9896 5.27453 25.6982C4.65229 26.3923 4.34118 27.3468 4.34118 28.5616C4.34118 29.7619 4.65229 30.7163 5.27453 31.4249C5.89676 32.1191 6.75776 32.4662 7.85753 32.4662ZM5.535 19.6243C5.043 19.6243 4.63059 19.4652 4.29776 19.1471C3.97941 18.8145 3.82023 18.4023 3.82023 17.9106C3.82023 17.4045 3.97941 16.9851 4.29776 16.6525C4.63059 16.3199 5.043 16.1536 5.535 16.1536C6.04147 16.1536 6.46112 16.3199 6.79394 16.6525C7.12676 16.9851 7.29318 17.4045 7.29318 17.9106C7.29318 18.4023 7.12676 18.8145 6.79394 19.1471C6.46112 19.4652 6.04147 19.6243 5.535 19.6243ZM10.1584 19.6243C9.66635 19.6243 9.25394 19.4652 8.92112 19.1471C8.60276 18.8145 8.44359 18.4023 8.44359 17.9106C8.44359 17.4045 8.60276 16.9851 8.92112 16.6525C9.25394 16.3199 9.66635 16.1536 10.1584 16.1536C10.6504 16.1536 11.0628 16.3199 11.3956 16.6525C11.7284 16.9851 11.8948 17.4045 11.8948 17.9106C11.8948 18.4023 11.7284 18.8145 11.3956 19.1471C11.0628 19.4652 10.6504 19.6243 10.1584 19.6243Z" fill="#E09A31"/>
<path d="M28.343 36.2623L24.2913 28.7423H23.6835V36.2623H18.011V15.8715H26.9539C28.5938 15.8715 29.983 16.1608 31.1214 16.7392C32.2597 17.2984 33.1183 18.0793 33.6972 19.082C34.276 20.0654 34.5654 21.1741 34.5654 22.4081C34.5654 23.7965 34.1795 25.0208 33.4078 26.0814C32.6553 27.1226 31.5458 27.865 30.0795 28.3085L34.6812 36.2623H28.343ZM23.6835 24.8666H26.4908C27.2625 24.8666 27.8414 24.6835 28.2273 24.3171C28.6131 23.9507 28.8061 23.4205 28.8061 22.7263C28.8061 22.0707 28.6035 21.5598 28.1983 21.1934C27.8124 20.8078 27.2433 20.6149 26.4908 20.6149H23.6835V24.8666ZM42.8175 20.4125V23.7386H49.3292V28.0481H42.8175V31.7214H50.1975V36.2623H37.145V15.8715H50.1975V20.4125H42.8175ZM66.024 25.7921C67.2202 26.0621 68.1657 26.6598 68.8603 27.5854C69.5741 28.4916 69.9311 29.5328 69.9311 30.7091C69.9311 32.4445 69.3329 33.8038 68.1367 34.7872C66.9404 35.7706 65.2619 36.2623 63.101 36.2623H53.0005V15.8715H62.7826C64.8664 15.8715 66.4967 16.3343 67.6737 17.2598C68.8699 18.1854 69.468 19.4869 69.468 21.1645C69.468 22.3599 69.1497 23.3626 68.513 24.1725C67.8955 24.963 67.0659 25.5029 66.024 25.7921ZM58.673 23.97H61.5381C62.9659 23.97 63.6798 23.3819 63.6798 22.2057C63.6798 20.9909 62.9659 20.3835 61.5381 20.3835H58.673V23.97ZM61.9723 31.6925C63.4 31.6925 64.1139 31.0947 64.1139 29.8992C64.1139 29.2822 63.9209 28.8098 63.5351 28.482C63.1685 28.1542 62.6379 27.9903 61.9433 27.9903H58.673V31.6925H61.9723ZM82.7494 36.2623L78.6976 28.7423H78.0898V36.2623H72.4174V15.8715H81.3602C82.9997 15.8715 84.3889 16.1608 85.5277 16.7392C86.6658 17.2984 87.5246 18.0793 88.1035 19.082C88.6823 20.0654 88.9717 21.1741 88.9717 22.4081C88.9717 23.7965 88.5853 25.0208 87.8141 26.0814C87.0616 27.1226 85.9517 27.865 84.4858 28.3085L89.0875 36.2623H82.7494ZM78.0898 24.8666H80.8971C81.6684 24.8666 82.2472 24.6835 82.6336 24.3171C83.0192 23.9507 83.2124 23.4205 83.2124 22.7263C83.2124 22.0707 83.0098 21.5598 82.6046 21.1934C82.2183 20.8078 81.6496 20.6149 80.8971 20.6149H78.0898V24.8666ZM101.333 36.4648C99.4231 36.4648 97.6671 36.0213 96.0659 35.1343C94.4647 34.2281 93.1913 32.9844 92.2457 31.4032C91.3196 29.8028 90.8565 27.9999 90.8565 25.9946C90.8565 23.9893 91.3196 22.1961 92.2457 20.6149C93.1913 19.0145 94.4647 17.7708 96.0659 16.8838C97.6671 15.9968 99.4231 15.5534 101.333 15.5534C103.263 15.5534 105.018 15.9968 106.601 16.8838C108.202 17.7708 109.466 19.0145 110.392 20.6149C111.318 22.1961 111.781 23.9893 111.781 25.9946C111.781 27.9999 111.318 29.8028 110.392 31.4032C109.466 32.9844 108.202 34.2281 106.601 35.1343C104.999 36.0213 103.243 36.4648 101.333 36.4648ZM101.333 31.2008C102.78 31.2008 103.918 30.7284 104.748 29.7835C105.597 28.8387 106.022 27.5758 106.022 25.9946C106.022 24.3749 105.597 23.1023 104.748 22.1768C103.918 21.2319 102.78 20.7595 101.333 20.7595C99.8666 20.7595 98.7191 21.2319 97.8892 22.1768C97.0593 23.1023 96.6447 24.3749 96.6447 25.9946C96.6447 27.595 97.0593 28.8676 97.8892 29.8125C98.7191 30.738 99.8666 31.2008 101.333 31.2008Z" fill="#F2F2F2"/>
<path d="M4.68852 0V8.87215C4.68852 9.69646 4.87664 10.3328 5.25287 10.7811C5.64358 11.2294 6.22964 11.4535 7.01105 11.4535C7.79246 11.4535 8.37852 11.2294 8.76922 10.7811C9.1744 10.3183 9.37699 9.682 9.37699 8.87215V0H13.6313V8.87215C13.6313 10.2749 13.3347 11.4752 12.7414 12.4731C12.1481 13.4565 11.3378 14.2012 10.3103 14.7074C9.2974 15.1991 8.16869 15.4449 6.92422 15.4449C5.67975 15.4449 4.56552 15.1991 3.58152 14.7074C2.61199 14.2012 1.84505 13.4565 1.2807 12.4731C0.730813 11.4897 0.455872 10.2894 0.455872 8.87215V0H4.68852ZM28.0639 5.09769C28.0639 6.02323 27.8468 6.86923 27.4127 7.63569C26.993 8.38769 26.3491 8.99508 25.4809 9.45784C24.6271 9.90615 23.578 10.1303 22.3335 10.1303H20.228V15.2931H15.9737V0H22.3335C23.5635 0 24.6054 0.216924 25.4592 0.65077C26.3274 1.08462 26.9786 1.68477 27.4127 2.45123C27.8468 3.21769 28.0639 4.09985 28.0639 5.09769ZM21.9211 6.74631C23.1222 6.74631 23.7227 6.19677 23.7227 5.09769C23.7227 3.98415 23.1222 3.42738 21.9211 3.42738H20.228V6.74631H21.9211ZM41.8632 5.09769C41.8632 6.02323 41.6462 6.86923 41.2121 7.63569C40.7924 8.38769 40.1485 8.99508 39.2802 9.45784C38.4265 9.90615 37.3774 10.1303 36.1329 10.1303H34.0274V15.2931H29.7731V0H36.1329C37.3629 0 38.4048 0.216924 39.2585 0.65077C40.1268 1.08462 40.7779 1.68477 41.2121 2.45123C41.6462 3.21769 41.8632 4.09985 41.8632 5.09769ZM35.7205 6.74631C36.9215 6.74631 37.5221 6.19677 37.5221 5.09769C37.5221 3.98415 36.9215 3.42738 35.7205 3.42738H34.0274V6.74631H35.7205ZM47.8268 12.0392H52.5804V15.2931H43.5724V0H47.8268V12.0392ZM58.4889 3.40569V5.90031H63.3728V9.13246H58.4889V11.8874H64.0239V15.2931H54.2346V0H64.0239V3.40569H58.4889ZM81.0165 0L75.742 15.2931H70.2937L64.9974 0H69.5557L73.0288 11.0414L76.48 0H81.0165Z" fill="#F2F2F2"/>
</svg>
