<svg width="941" height="360" viewBox="0 0 941 360" fill="none" xmlns="http://www.w3.org/2000/svg">
<path d="M65.4271 283.625C54.4673 283.625 44.393 281.077 35.2044 275.982C26.0158 270.775 18.7093 263.631 13.2847 254.548C7.97078 245.354 5.31384 234.997 5.31384 223.477C5.31384 211.957 7.97078 201.655 13.2847 192.572C18.7093 183.378 26.0158 176.234 35.2044 171.138C44.393 166.043 54.4673 163.495 65.4271 163.495C76.4977 163.495 86.572 166.043 95.6499 171.138C104.838 176.234 112.09 183.378 117.404 192.572C122.717 201.655 125.374 211.957 125.374 223.477C125.374 234.997 122.717 245.354 117.404 254.548C112.09 263.631 104.838 270.775 95.6499 275.982C86.4613 281.077 76.387 283.625 65.4271 283.625ZM65.4271 253.385C73.7301 253.385 80.2617 250.671 85.0221 245.243C89.8931 239.815 92.3287 232.56 92.3287 223.477C92.3287 214.172 89.8931 206.862 85.0221 201.545C80.2617 196.117 73.7301 193.403 65.4271 193.403C57.0135 193.403 50.4265 196.117 45.6661 201.545C40.9058 206.862 38.5256 214.172 38.5256 223.477C38.5256 232.671 40.9058 239.982 45.6661 245.409C50.4265 250.726 57.0135 253.385 65.4271 253.385ZM47.6588 155.022C43.8948 155.022 40.7397 153.803 38.1935 151.366C35.758 148.818 34.5402 145.662 34.5402 141.895C34.5402 138.018 35.758 134.806 38.1935 132.258C40.7397 129.711 43.8948 128.437 47.6588 128.437C51.5335 128.437 54.744 129.711 57.2903 132.258C59.8365 134.806 61.1096 138.018 61.1096 141.895C61.1096 145.662 59.8365 148.818 57.2903 151.366C54.744 153.803 51.5335 155.022 47.6588 155.022ZM83.0294 155.022C79.2654 155.022 76.1103 153.803 73.564 151.366C71.1285 148.818 69.9107 145.662 69.9107 141.895C69.9107 138.018 71.1285 134.806 73.564 132.258C76.1103 129.711 79.2654 128.437 83.0294 128.437C86.7934 128.437 89.9485 129.711 92.4947 132.258C95.041 134.806 96.3141 138.018 96.3141 141.895C96.3141 145.662 95.041 148.818 92.4947 151.366C89.9485 153.803 86.7934 155.022 83.0294 155.022Z" fill="#E09A31"/>
<path d="M222.15 282.462L191.152 224.862H186.502V282.462H143.106V126.277H211.522C224.068 126.277 234.696 128.492 243.405 132.923C252.114 137.206 258.683 143.187 263.111 150.868C267.539 158.4 269.753 166.892 269.753 176.345C269.753 186.978 266.801 196.357 260.897 204.48C255.14 212.455 246.652 218.142 235.434 221.538L270.639 282.462H222.15ZM186.502 195.175H207.979C213.883 195.175 218.311 193.772 221.264 190.966C224.216 188.16 225.692 184.098 225.692 178.782C225.692 173.76 224.142 169.846 221.043 167.04C218.09 164.086 213.736 162.609 207.979 162.609H186.502V195.175ZM332.885 161.058V186.535H382.702V219.545H332.885V247.68H389.345V282.462H289.488V126.277H389.345V161.058H332.885ZM510.424 202.265C519.576 204.332 526.809 208.911 532.123 216C537.584 222.941 540.315 230.917 540.315 239.926C540.315 253.218 535.739 263.631 526.587 271.163C517.435 278.695 504.594 282.462 488.062 282.462H410.789V126.277H485.626C501.568 126.277 514.041 129.821 523.045 136.911C532.196 144 536.772 153.969 536.772 166.818C536.772 175.975 534.337 183.655 529.466 189.858C524.742 195.914 518.395 200.049 510.424 202.265ZM454.186 188.308H476.106C487.028 188.308 492.49 183.803 492.49 174.794C492.49 165.489 487.028 160.837 476.106 160.837H454.186V188.308ZM479.427 247.458C490.35 247.458 495.811 242.88 495.811 233.723C495.811 228.997 494.335 225.378 491.383 222.868C488.578 220.357 484.519 219.102 479.205 219.102H454.186V247.458H479.427ZM638.38 282.462L607.382 224.862H602.733V282.462H559.336V126.277H627.752C640.295 126.277 650.923 128.492 659.635 132.923C668.342 137.206 674.913 143.187 679.341 150.868C683.769 158.4 685.983 166.892 685.983 176.345C685.983 186.978 683.028 196.357 677.127 204.48C671.37 212.455 662.879 218.142 651.665 221.538L686.869 282.462H638.38ZM602.733 195.175H624.21C630.11 195.175 634.538 193.772 637.494 190.966C640.445 188.16 641.923 184.098 641.923 178.782C641.923 173.76 640.373 169.846 637.273 167.04C634.317 164.086 629.966 162.609 624.21 162.609H602.733V195.175ZM780.554 284.012C765.941 284.012 752.507 280.616 740.257 273.822C728.007 266.88 718.265 257.354 711.031 245.243C703.945 232.985 700.403 219.175 700.403 203.815C700.403 188.456 703.945 174.72 711.031 162.609C718.265 150.351 728.007 140.825 740.257 134.031C752.507 127.237 765.941 123.84 780.554 123.84C795.317 123.84 808.745 127.237 820.851 134.031C833.101 140.825 842.771 150.351 849.856 162.609C856.941 174.72 860.484 188.456 860.484 203.815C860.484 219.175 856.941 232.985 849.856 245.243C842.771 257.354 833.101 266.88 820.851 273.822C808.601 280.616 795.167 284.012 780.554 284.012ZM780.554 243.692C791.625 243.692 800.332 240.074 806.681 232.837C813.173 225.6 816.423 215.926 816.423 203.815C816.423 191.409 813.173 181.662 806.681 174.572C800.332 167.335 791.625 163.717 780.554 163.717C769.334 163.717 760.555 167.335 754.206 174.572C747.857 181.662 744.685 191.409 744.685 203.815C744.685 216.074 747.857 225.821 754.206 233.058C760.555 240.148 769.334 243.692 780.554 243.692Z" fill="#F2F2F2"/>
<path d="M41.1826 4.7077V72.6646C41.1826 78.9785 42.6217 83.8523 45.5001 87.2862C48.4891 90.72 52.9727 92.4369 58.9508 92.4369C64.929 92.4369 69.4126 90.72 72.4016 87.2862C75.5014 83.7416 77.0513 78.8677 77.0513 72.6646V4.7077H109.599V72.6646C109.599 83.4092 107.329 92.6031 102.79 100.246C98.2514 107.778 92.0519 113.483 84.1918 117.36C76.4424 121.126 67.8073 123.009 58.2866 123.009C48.7659 123.009 40.2416 121.126 32.7136 117.36C25.2963 113.483 19.4289 107.778 15.1113 100.246C10.9045 92.7139 8.80109 83.52 8.80109 72.6646V4.7077H41.1826ZM220.014 43.7539C220.014 50.8431 218.353 57.3231 215.032 63.1939C211.821 68.9539 206.895 73.6062 200.253 77.1508C193.721 80.5846 185.695 82.3016 176.174 82.3016H160.066V121.846H127.519V4.7077H176.174C185.584 4.7077 193.555 6.36925 200.086 9.69232C206.729 13.0154 211.711 17.6123 215.032 23.4831C218.353 29.3539 220.014 36.1108 220.014 43.7539ZM173.019 56.3816C182.207 56.3816 186.802 52.1723 186.802 43.7539C186.802 35.2246 182.207 30.96 173.019 30.96H160.066V56.3816H173.019ZM325.584 43.7539C325.584 50.8431 323.924 57.3231 320.603 63.1939C317.392 68.9539 312.466 73.6062 305.823 77.1508C299.292 80.5846 291.265 82.3016 281.745 82.3016H265.637V121.846H233.09V4.7077H281.745C291.155 4.7077 299.126 6.36925 305.657 9.69232C312.3 13.0154 317.281 17.6123 320.603 23.4831C323.924 29.3539 325.584 36.1108 325.584 43.7539ZM278.59 56.3816C287.778 56.3816 292.373 52.1723 292.373 43.7539C292.373 35.2246 287.778 30.96 278.59 30.96H265.637V56.3816H278.59ZM371.208 96.9231H407.575V121.846H338.66V4.7077H371.208V96.9231ZM452.778 30.7939V49.9016H490.141V74.6585H452.778V95.76H495.123V121.846H420.23V4.7077H495.123V30.7939H452.778ZM625.123 4.7077L584.771 121.846H543.089L502.57 4.7077H537.443L564.013 89.28L590.417 4.7077H625.123Z" fill="#F2F2F2"/>
</svg>
